<?xml version="1.0" encoding="UTF-8"?>
<svg version="1.1" xmlns="http://www.w3.org/2000/svg" width="1500" height="500">
<path d="M0 0 C2.35942514 1.88843723 4.423615 3.99570801 6.5 6.1875 C7.06243408 6.76540283 7.62486816 7.34330566 8.2043457 7.9387207 C11.83173936 11.69186541 15.35910139 15.52582367 18.73046875 19.51171875 C20.07539285 21.12810735 20.07539285 21.12810735 22 23 C25.21221216 22.85688164 26.66859425 22.29826517 29.0703125 20.13671875 C29.74835938 19.32847656 30.42640625 18.52023438 31.125 17.6875 C31.8984375 16.79289062 32.671875 15.89828125 33.46875 14.9765625 C34.72171875 13.50316406 34.72171875 13.50316406 36 12 C37.85561812 9.83643386 39.73409678 7.69524771 41.625 5.5625 C42.48351562 4.57378906 43.34203125 3.58507812 44.2265625 2.56640625 C48.41642574 -1.31069255 52.19826895 -2.79980766 57.9375 -3.4375 C63.250491 -3.18008765 67.64523141 -1.32687297 71.44519043 2.42807007 C76.42153516 9.25017003 75.68736079 17.040683 75.59375 25.1015625 C75.59203638 26.66759143 75.59210713 28.23362323 75.59387207 29.7996521 C75.59222483 33.06951627 75.57363446 36.33868986 75.54199219 39.60839844 C75.50225007 43.78916709 75.49795823 47.96903584 75.50545502 52.14995766 C75.50853084 55.37916232 75.49638362 58.60816651 75.47932434 61.83732224 C75.47231964 63.37861244 75.46916672 64.91992534 75.47001648 66.46123123 C75.46820925 68.61730964 75.4467531 70.77232866 75.41992188 72.92822266 C75.41150269 74.15207672 75.4030835 75.37593079 75.39440918 76.63687134 C74.8818855 81.0071628 73.48452448 84.40970787 70.46484375 87.64453125 C64.23631242 92.4075258 59.7938532 92.73449925 52 92 C46.98208316 89.58064724 43.50041345 86.0008269 41 81 C40.84995027 79.6265365 40.75161994 78.2471474 40.68359375 76.8671875 C40.64169922 76.06152344 40.59980469 75.25585938 40.55664062 74.42578125 C40.51732422 73.58402344 40.47800781 72.74226563 40.4375 71.875 C40.39431641 71.02550781 40.35113281 70.17601562 40.30664062 69.30078125 C40.20045764 67.20071777 40.09971503 65.10038052 40 63 C39.22269531 63.78890625 38.44539063 64.5778125 37.64453125 65.390625 C33.48524681 69.49461615 30.06015347 71.53222276 24.11328125 72.05859375 C18.53210455 71.90384763 14.41142765 69.68720063 10.5 65.8125 C9.675 64.884375 8.85 63.95625 8 63 C7.96132812 64.59328125 7.96132812 64.59328125 7.921875 66.21875 C7.33104245 82.88022791 7.33104245 82.88022791 0.4375 89.4375 C-4.70078475 92.73127227 -10.07705648 92.61129403 -16 92 C-20.06759296 90.54574553 -22.57454583 88.63818126 -25 85 C-25.21465112 82.40004877 -25.31439208 79.90495205 -25.32226562 77.30322266 C-25.33219543 76.52077682 -25.34212524 75.73833099 -25.35235596 74.93217468 C-25.38157486 72.34276823 -25.39519807 69.75360674 -25.40625 67.1640625 C-25.41775436 65.36428826 -25.42926981 63.56451409 -25.4407959 61.76473999 C-25.46180851 57.99028379 -25.47349878 54.21591271 -25.48046875 50.44140625 C-25.49144146 45.60660657 -25.53950274 40.77293259 -25.59641266 35.9384861 C-25.63367419 32.2203951 -25.64407692 28.50257514 -25.6471405 24.7843132 C-25.65319219 23.00208756 -25.66924532 21.21986661 -25.69551086 19.43782425 C-25.72966099 16.94286879 -25.72587084 14.4506613 -25.71289062 11.95556641 C-25.73132019 11.2208461 -25.74974976 10.48612579 -25.76873779 9.72914124 C-25.72264267 6.89810488 -25.55590711 4.66641957 -23.70219421 2.44419479 C-16.30407256 -3.86342415 -8.54987801 -4.84523382 0 0 Z " fill="#DFD3DB" transform="translate(71,215)"/>
<path d="M0 0 C0.98855484 -0.00960754 1.97710968 -0.01921509 2.99562073 -0.02911377 C4.06432907 -0.03336365 5.13303741 -0.03761353 6.23413086 -0.04199219 C7.33816757 -0.04769226 8.44220428 -0.05339233 9.57969666 -0.05926514 C11.92079713 -0.06871933 14.26191094 -0.07525078 16.60302734 -0.07910156 C20.16064216 -0.08876309 23.71766837 -0.11976491 27.27514648 -0.15136719 C29.55313786 -0.15790188 31.83113335 -0.16315052 34.10913086 -0.16699219 C35.16366959 -0.17933899 36.21820831 -0.19168579 37.30470276 -0.20440674 C49.35881022 -0.16861132 57.58996228 2.90237927 66.26928711 11.20019531 C74.30737929 19.59421777 76.7201525 27.41725304 76.61621094 38.82202148 C76.30246986 46.88849336 74.21263836 53.80501947 69.13647461 60.16113281 C70.23336222 62.62912994 71.29744695 64.33719631 73.13647461 66.34863281 C76.17314729 70.61895376 77.35660913 75.05667162 76.98413086 80.30957031 C75.9786586 85.30820383 73.85980451 88.60328425 70.13647461 92.16113281 C65.25854152 94.92222701 60.69717594 96.08454134 55.13647461 95.16113281 C47.45194457 92.17362653 42.60370631 87.09763822 36.94897461 81.22363281 C36.07305664 80.32966797 35.19713867 79.43570313 34.29467773 78.51464844 C32.62016662 76.80459046 30.95075629 75.08951752 29.28735352 73.36865234 C27.6017296 71.6386397 25.89224335 69.95219753 24.14819336 68.28222656 C19.87656247 63.77835167 19.69514878 59.95765603 19.82397461 53.91894531 C20.4330776 48.54361146 22.66922856 45.48523291 26.69897461 41.84863281 C31.36660299 39.55725161 36.01446921 38.85378835 41.13647461 38.16113281 C41.46647461 37.17113281 41.79647461 36.18113281 42.13647461 35.16113281 C38.88655015 35.10293857 35.63676026 35.06747165 32.38647461 35.03613281 C31.46608398 35.019375 30.54569336 35.00261719 29.59741211 34.98535156 C28.70795898 34.97890625 27.81850586 34.97246094 26.90209961 34.96582031 C26.08515625 34.95534668 25.26821289 34.94487305 24.42651367 34.93408203 C21.90565496 35.18401792 20.35370216 35.98401186 18.13647461 37.16113281 C18.12189209 38.42183594 18.10730957 39.68253906 18.09228516 40.98144531 C18.03404974 45.68566396 17.95681898 50.38941654 17.87402344 55.09326172 C17.84089248 57.1241089 17.81282418 59.15504555 17.79003906 61.18603516 C17.75627484 64.11562 17.70394862 67.04439372 17.64819336 69.97363281 C17.63860847 71.32255615 17.63860847 71.32255615 17.62882996 72.69873047 C17.48096374 79.12524957 16.70749253 85.14347926 12.38256836 90.21972656 C11.78573242 90.67476563 11.18889648 91.12980469 10.57397461 91.59863281 C9.97456055 92.07171875 9.37514648 92.54480469 8.75756836 93.03222656 C4.290735 96.14286473 -0.60089388 95.6772196 -5.86352539 95.16113281 C-11.22521903 93.44891313 -14.17982704 90.01243367 -16.86352539 85.16113281 C-17.99013616 81.78130049 -18.01116992 79.17721657 -18.04052734 75.61352539 C-18.04709854 74.95294128 -18.05366974 74.29235718 -18.06044006 73.61175537 C-18.08014245 71.42639036 -18.09183078 69.24109409 -18.10180664 67.05566406 C-18.10588217 66.30715368 -18.1099577 65.5586433 -18.11415672 64.78745079 C-18.13500772 60.82306572 -18.14931175 56.85871513 -18.15869141 52.89428711 C-18.16973413 48.81334276 -18.20411143 44.73294693 -18.24386311 40.65219593 C-18.27010052 37.50275204 -18.27838967 34.35343722 -18.28197289 31.20389366 C-18.28682307 29.70049028 -18.29839214 28.19709206 -18.31701088 26.69379616 C-18.48848906 11.92671348 -18.48848906 11.92671348 -13.86352539 5.16113281 C-9.31805937 1.54331292 -5.75386381 0.04520024 0 0 Z " fill="#FDCCEB" transform="translate(1075.863525390625,210.8388671875)"/>
<path d="M0 0 C3.5677811 2.35149209 5.84221079 4.99692157 7.75 8.8125 C7.88008728 10.73563282 7.9525805 12.66280739 7.99609375 14.58984375 C8.02896484 15.74291016 8.06183594 16.89597656 8.09570312 18.08398438 C8.15680092 20.52399621 8.21410521 22.96410604 8.26757812 25.40429688 C8.31881836 27.13583008 8.31881836 27.13583008 8.37109375 28.90234375 C8.3961499 29.96316162 8.42120605 31.02397949 8.44702148 32.11694336 C8.56634735 35.03350459 8.56634735 35.03350459 10.75 37.8125 C14.33357241 38.06265873 14.33357241 38.06265873 17.75 37.8125 C17.7593457 37.03648437 17.76869141 36.26046875 17.77832031 35.4609375 C17.83233437 31.91083713 17.91592303 28.36201052 18 24.8125 C18.01417969 23.59175781 18.02835938 22.37101562 18.04296875 21.11328125 C18.23700538 13.93392582 18.77652176 8.87007118 22.75 2.8125 C26.95093022 -0.83131305 31.08484444 -1.83596116 36.60546875 -1.58203125 C41.14006582 -0.74779755 44.85968265 2.31369478 47.75 5.8125 C48.82391366 9.03424097 48.88975625 11.38900888 48.91113281 14.77758789 C48.92074036 16.00639175 48.9303479 17.23519562 48.94024658 18.50123596 C48.94509724 19.84587416 48.94937541 21.19051453 48.953125 22.53515625 C48.95888204 23.91938782 48.9646397 25.30361939 48.97039795 26.68785095 C48.98090421 29.59390635 48.98674808 32.49993414 48.99023438 35.40600586 C48.99569239 39.1055279 49.01966343 42.80467691 49.04820633 46.50408268 C49.0669657 49.36709096 49.0720455 52.2300122 49.07357025 55.09307671 C49.07801993 57.11247413 49.09660894 59.13182471 49.11553955 61.15113831 C49.08831946 72.49657148 47.54557298 81.27176196 39.75 89.8125 C30.98824545 98.3795489 21.18235306 100.13051971 9.33203125 100.03125 C1.94899819 99.58037775 -4.52068293 97.53918658 -10.25 92.8125 C-12.82911429 88.57919516 -12.89334779 84.64168027 -12.25 79.8125 C-10.88360678 75.54968042 -8.85405786 73.18422791 -5 70.8125 C-0.74761326 69.6785302 2.52378244 69.98177403 6.75 70.8125 C11.70586293 71.68436478 15.0749343 71.91991303 19.75 69.8125 C18.84378906 69.77511719 17.93757812 69.73773438 17.00390625 69.69921875 C4.00166635 68.99751056 -5.07102415 66.77349936 -14.04296875 56.82421875 C-21.90952414 46.82106807 -22.46291858 36.81215058 -22.5625 24.4375 C-22.59150391 23.24382812 -22.62050781 22.05015625 -22.65039062 20.8203125 C-22.701897 13.65696474 -22.23475559 8.84309612 -18.25 2.8125 C-12.66687251 -1.93746071 -6.90313353 -2.52229879 0 0 Z " fill="#D5D5D5" transform="translate(505.25,237.1875)"/>
<path d="M0 0 C4.34155748 0.27565444 7.82082341 0.14497989 12 -1 C19.59159847 -3.05298091 26.8971745 -2.38026033 34 1 C41.7334424 6.46674376 47.02620812 12.58614512 49 22 C49.11869031 24.76620348 49.18785152 27.50665698 49.203125 30.2734375 C49.20882507 31.07480133 49.21452515 31.87616516 49.22039795 32.70181274 C49.22982771 34.39461962 49.23637388 36.08744469 49.24023438 37.78027344 C49.24993998 40.35905207 49.28098169 42.93703323 49.3125 45.515625 C49.31903083 47.16405779 49.32428099 48.81249625 49.328125 50.4609375 C49.3404718 51.2267514 49.3528186 51.99256531 49.36553955 52.78158569 C49.34570983 57.58789805 48.62030471 60.8214021 46 65 C42.43861109 68.30079948 39.68281634 69.2750859 34.9375 69.4375 C30.86009164 69.25383296 28.15186871 68.76982402 25 66 C19.3141643 58.89270538 20.87622104 48.0790544 20.9375 39.5 C20.94201172 38.29601562 20.94652344 37.09203125 20.95117188 35.8515625 C20.9628805 32.90098927 20.97928005 29.95052141 21 27 C20.01 26.67 19.02 26.34 18 26 C18.02094727 26.99854004 18.04189453 27.99708008 18.06347656 29.02587891 C18.136167 32.74936443 18.1819042 36.4727879 18.21972656 40.19677734 C18.23977627 41.80495774 18.26702364 43.41306583 18.30175781 45.02099609 C18.35057264 47.3397002 18.37303428 49.65743625 18.390625 51.9765625 C18.41127014 52.68930328 18.43191528 53.40204407 18.45318604 54.13638306 C18.45545446 59.24388424 17.17975733 62.05512737 14 66 C10.22360077 69.33211697 6.38512447 69.62331052 1.51171875 69.4921875 C-2.66521636 68.67369011 -5.38908238 66.28161205 -8 63 C-9.18001549 59.45995354 -9.22912346 56.1772744 -9.31640625 52.48828125 C-9.33718735 51.76005661 -9.35796844 51.03183197 -9.37937927 50.28153992 C-9.44468746 47.95862125 -9.50367237 45.63559094 -9.5625 43.3125 C-9.60570305 41.73631665 -9.64931792 40.16014452 -9.69335938 38.58398438 C-9.8003496 34.72277025 -9.90166961 30.86144397 -10 27 C-10.66 27 -11.32 27 -12 27 C-11.99887207 27.99330322 -11.99774414 28.98660645 -11.99658203 30.01000977 C-12.00027342 33.72119221 -12.04324744 37.43108901 -12.09765625 41.1418457 C-12.11574289 42.74299804 -12.1233981 44.34430552 -12.12011719 45.94555664 C-12.10140747 60.9741341 -12.10140747 60.9741341 -15.9296875 65.52734375 C-20.37056219 69.10377336 -22.87923894 69.3456401 -28.45703125 69.28125 C-32.19180418 68.86818756 -34.23941828 67.49125668 -37 65 C-40.45070679 60.55674428 -40.45349856 56.72855584 -40.43359375 51.33203125 C-40.4388356 50.49717697 -40.44407745 49.66232269 -40.44947815 48.8021698 C-40.45588753 47.03796497 -40.45457538 45.27371734 -40.44604492 43.50952148 C-40.43758153 40.83823402 -40.4662337 38.16912079 -40.49804688 35.49804688 C-40.54120576 25.34560324 -40.26634876 16.93345143 -34.140625 8.4140625 C-23.76334089 -1.4057642 -13.78953403 -3.93986687 0 0 Z " fill="#FDC8E9" transform="translate(1275,237)"/>
<path d="M0 0 C3.61598155 2.94271302 5.44812126 5.29743235 6.9296875 9.76953125 C7.15673828 12.81567383 7.15673828 12.81567383 7.125 16.1640625 C7.11855469 17.36611328 7.11210937 18.56816406 7.10546875 19.80664062 C7.08871094 21.05251953 7.07195312 22.29839844 7.0546875 23.58203125 C7.04566406 24.84724609 7.03664063 26.11246094 7.02734375 27.41601562 C7.00381144 30.53404689 6.97093295 33.65169222 6.9296875 36.76953125 C8.54037109 35.75632812 8.54037109 35.75632812 10.18359375 34.72265625 C11.61974569 33.82154131 13.0559462 32.92050377 14.4921875 32.01953125 C15.19666016 31.57609375 15.90113281 31.13265625 16.62695312 30.67578125 C18.72149392 29.36307366 20.82358584 28.06359679 22.9296875 26.76953125 C23.56624268 26.3725 24.20279785 25.97546875 24.85864258 25.56640625 C29.78275203 22.59616115 33.30615879 21.76386371 38.9296875 22.76953125 C43.74820975 25.13333462 46.60045571 27.931896 48.9296875 32.76953125 C49.56435055 37.21217261 49.47476458 41.20697696 47.9921875 45.45703125 C43.95745737 49.98081958 38.9535002 53.42032278 33.9296875 56.76953125 C35.92052716 61.66744928 39.8388192 64.68117109 43.6171875 68.234375 C47.40342276 72.38516332 48.40515026 76.15064963 48.24609375 81.78125 C47.55236576 86.14060245 44.67117914 88.88900993 41.9296875 92.14453125 C36.96685304 94.83273325 32.40998518 94.98216436 26.9296875 93.76953125 C22.7265268 91.28888601 19.38604031 88.19422281 15.9296875 84.76953125 C15.11628906 83.98449219 14.30289063 83.19945312 13.46484375 82.390625 C11.58664578 80.54543578 9.74391395 78.67732812 7.9296875 76.76953125 C7.85492188 77.33800781 7.78015625 77.90648437 7.703125 78.4921875 C6.6513893 84.66855698 4.67092537 88.61799958 -0.0703125 92.76953125 C-4.00755361 95.09149396 -7.55420653 95.1656809 -12.0703125 94.76953125 C-17.40770723 92.78109008 -20.52365074 89.86285477 -23.0703125 84.76953125 C-23.18383115 82.36037009 -23.23810124 79.97941844 -23.24731445 77.56933594 C-23.25388565 76.82765671 -23.26045685 76.08597748 -23.26722717 75.32182312 C-23.28697395 72.86168317 -23.29862678 70.40160435 -23.30859375 67.94140625 C-23.31266928 67.101222 -23.3167448 66.26103775 -23.32094383 65.39539337 C-23.34181208 60.94702906 -23.35610959 56.49869566 -23.36547852 52.05029297 C-23.3765348 47.45909461 -23.41092324 42.868382 -23.45065022 38.27735519 C-23.4768202 34.74453847 -23.48517075 31.21183731 -23.48875999 27.67893219 C-23.49362627 25.98687719 -23.50524148 24.29482737 -23.52379799 22.60286713 C-23.54819474 20.23062415 -23.54722381 17.8596352 -23.5402832 15.48730469 C-23.55309326 14.79201157 -23.56590332 14.09671844 -23.57910156 13.38035583 C-23.52618955 8.40259753 -22.14234884 5.62626899 -19.0703125 1.76953125 C-13.77435818 -3.02992735 -6.20173417 -3.68593635 0 0 Z " fill="#D6D6D6" transform="translate(353.0703125,212.23046875)"/>
<path d="M0 0 C4.38485118 2.59682353 6.72363725 5.8551771 8.75 10.5 C9.41276663 14.03348766 9.42580806 17.46714864 9.38671875 21.0546875 C9.40228569 22.52882614 9.40228569 22.52882614 9.41816711 24.03274536 C9.44769829 27.14719299 9.44448873 30.2604384 9.4375 33.375 C9.44638626 36.51064757 9.46227102 39.64597767 9.4889679 42.78152466 C9.50391646 44.72684374 9.5076666 46.67228721 9.49919128 48.61764526 C9.50292252 49.49260651 9.50665375 50.36756775 9.51049805 51.26904297 C9.50874069 52.03989227 9.50698334 52.81074158 9.50517273 53.60494995 C9.58521031 55.74232913 9.58521031 55.74232913 11.75 57.5 C14.24576819 57.69689068 16.63983345 57.77693669 19.13671875 57.7734375 C20.64779366 57.79374205 22.1588613 57.81459311 23.66992188 57.8359375 C26.04848334 57.85845295 28.42675712 57.87497342 30.80541992 57.88085938 C33.10388128 57.89044728 35.4010504 57.92431393 37.69921875 57.9609375 C38.40052414 57.95589203 39.10182953 57.95084656 39.8243866 57.94564819 C45.29946629 58.05343357 48.32609131 59.50356848 52.75 62.5 C57.62101261 67.88375078 58.10423213 71.31568594 58.02734375 78.44921875 C57.61925987 82.93814144 56.55164838 84.96107573 53.75 88.5 C48.5996083 92.57739343 44.79246059 93.61474415 38.3581543 93.66113281 C37.27990891 93.67074036 36.20166351 93.6803479 35.09074402 93.69024658 C33.93029068 93.69449646 32.76983734 93.69874634 31.57421875 93.703125 C30.37569778 93.70882507 29.17717682 93.71452515 27.94233704 93.72039795 C25.40630983 93.729843 22.87027038 93.73637996 20.33422852 93.74023438 C16.46283461 93.74993651 12.59197238 93.78096417 8.72070312 93.8125 C6.25521148 93.81903065 3.78971605 93.82428088 1.32421875 93.828125 C0.1698381 93.8404718 -0.98454254 93.8528186 -2.17390442 93.86553955 C-9.90106109 93.84421941 -15.05776727 93.2666017 -21.0625 88.0625 C-24.94894789 83.5098039 -25.50393351 80.54187641 -25.54052734 74.53173828 C-25.54724457 73.83853485 -25.55396179 73.14533142 -25.56088257 72.43112183 C-25.57984879 70.14411206 -25.58378604 67.85739598 -25.5859375 65.5703125 C-25.5923665 63.97614421 -25.59909494 62.3819771 -25.60610962 60.78781128 C-25.61807899 57.44721746 -25.62179081 54.10672703 -25.62060547 50.76611328 C-25.62040232 46.49328199 -25.64770118 42.22111612 -25.68214989 37.94844246 C-25.70442859 34.65580218 -25.70844272 31.36332179 -25.70738602 28.07061386 C-25.70974064 26.4957945 -25.71855644 24.92097064 -25.73405075 23.34622574 C-25.75373121 21.13936525 -25.74786621 18.93393618 -25.73583984 16.72705078 C-25.73868988 15.473367 -25.74153992 14.21968323 -25.74447632 12.92800903 C-24.99219397 7.71273263 -22.53288009 4.65772106 -18.6875 1.1875 C-13.08463837 -2.69140421 -6.16629077 -2.65606832 0 0 Z " fill="#D4D4D4" transform="translate(631.25,212.5)"/>
<path d="M0 0 C3.74402375 0.94087252 7.08075085 1.047148 10.9375 0.9375 C15.68371145 0.86513083 18.78968989 1.12877517 22.75 4 C26.2750968 7.90618835 27.86493198 10.30678322 27.92700195 15.5222168 C27.94625481 16.92959358 27.94625481 16.92959358 27.96589661 18.36540222 C27.97328354 19.38306168 27.98067047 20.40072113 27.98828125 21.44921875 C27.996353 22.4951973 28.00442474 23.54117584 28.01274109 24.61885071 C28.02659055 26.83727354 28.03730883 29.05571777 28.04516602 31.27416992 C28.06234259 34.65650281 28.10621762 38.0378492 28.15039062 41.41992188 C28.16052065 43.57551365 28.16903578 45.73111373 28.17578125 47.88671875 C28.19328934 48.89425705 28.21079742 49.90179535 28.22883606 50.93986511 C28.20967915 57.18683144 27.43615942 60.90391334 23.75 66 C18.79295141 70.13087383 12.67162762 70.05746394 6.5 70 C3.04428135 69.83977839 3.04428135 69.83977839 0.953125 70.4765625 C-9.19193637 72.88691396 -19.32339373 71.17979804 -28.25 66 C-35.81385291 60.95743139 -40.18220721 53.98150082 -43.625 45.6875 C-45.4602735 34.85938635 -45.02993341 24.01141074 -38.5625 14.8125 C-32.1438441 6.98679884 -25.10013425 1.6775839 -15.1875 -0.75 C-9.8417792 -1.20495496 -5.19111357 -1.32359315 0 0 Z M-14.25 33 C-13.80296014 37.47883696 -13.80296014 37.47883696 -11.25 41 C-8.11295684 41.333728 -6.08445834 41.52849028 -3.375 39.8125 C-1.79909074 37.27353509 -1.67712706 35.93597381 -2.25 33 C-7.4578076 27.92923997 -8.93411443 28.52346478 -14.25 33 Z " fill="#D6D6D6" transform="translate(979.25,236)"/>
<path d="M0 0 C3.41920122 1.9660407 5.77214166 4.14592781 8.5 6.984375 C9.81097656 8.33595703 9.81097656 8.33595703 11.1484375 9.71484375 C12.12683594 10.74544922 12.12683594 10.74544922 13.125 11.796875 C13.54910156 11.43335938 13.97320313 11.06984375 14.41015625 10.6953125 C15.64352078 9.6381429 16.8779732 8.5822417 18.11328125 7.52734375 C19.43135077 6.39354802 20.74160861 5.25059242 22.04296875 4.09765625 C22.94982422 3.29908203 22.94982422 3.29908203 23.875 2.484375 C24.42671875 1.99324219 24.9784375 1.50210938 25.546875 0.99609375 C29.13241913 -1.72856479 32.80925053 -1.55687496 37.125 -1.203125 C41.86098432 0.18409429 45.18324063 2.15805105 47.6875 6.484375 C49.60792101 11.06777982 49.47972144 15.05977716 48.125 19.796875 C45.27409732 25.38464426 40.61698329 29.50114341 36.125 33.796875 C38.03181452 38.37737509 41.43937969 41.0824901 45.03125 44.3828125 C47.890692 47.67970645 48.96074702 50.77451021 49.3125 55.10546875 C48.84858721 60.37281185 47.51262103 63.60996369 43.79296875 67.41796875 C40.14076815 70.43723529 36.718677 71.0037376 32.125 70.671875 C24.2917225 69.34898753 19.91397149 63.63431954 15.125 57.796875 C11.75753643 59.23475215 9.81308907 61.0293051 7.375 63.734375 C3.05675343 68.1325891 -0.71164065 70.47723129 -6.91015625 70.953125 C-11.87837648 70.72338071 -14.92885754 68.80980743 -18.4609375 65.390625 C-21.69263387 61.74827108 -22.06074336 58.73286903 -21.9375 53.984375 C-21.19611046 47.98179946 -18.13356572 44.84027108 -13.875 40.796875 C-12.89513534 39.79755893 -11.91586132 38.79766294 -10.9375 37.796875 C-10.256875 37.136875 -9.57625 36.476875 -8.875 35.796875 C-10.3156794 32.4303133 -12.12355288 30.44298401 -14.8125 27.984375 C-18.96748814 23.88982305 -21.78842027 20.65300278 -21.92578125 14.53515625 C-21.58996972 10.02035677 -20.94605266 6.26419252 -17.875 2.796875 C-12.17077182 -1.11753892 -6.64790475 -2.78200362 0 0 Z " fill="#D6D6D6" transform="translate(1392.875,236.203125)"/>
<path d="M0 0 C3.39532101 2.90017003 5.6221772 4.94966908 6.27734375 9.48046875 C6.5439746 15.1650385 4.87334202 18.43789358 1.07055664 22.75073242 C0.35762451 23.46592041 -0.35530762 24.1811084 -1.08984375 24.91796875 C-2.26643555 26.09842773 -2.26643555 26.09842773 -3.46679688 27.30273438 C-4.28212891 28.11033203 -5.09746094 28.91792969 -5.9375 29.75 C-6.74896484 30.56919922 -7.56042969 31.38839844 -8.39648438 32.23242188 C-9.18216797 33.01552734 -9.96785156 33.79863281 -10.77734375 34.60546875 C-11.49140381 35.31727295 -12.20546387 36.02907715 -12.94116211 36.76245117 C-16.43907069 39.8206843 -18.22132874 40.57485986 -22.9375 40.5 C-27.2343295 39.84264922 -29.26915775 37.95536462 -32 34.5625 C-33.73246868 31.09756264 -32.76936705 27.26466792 -32 23.5625 C-30.4375 21 -30.4375 21 -29 19.5625 C-32.5147077 22.96383003 -33.89616356 24.31646276 -34.3125 29.3125 C-34.25654643 33.70885228 -32.88670044 36.19468282 -30 39.5625 C-26.54782123 42.18139424 -23.21057192 42.1057996 -19 41.5625 C-17.32055554 40.62003851 -15.67622469 39.61352806 -14.0625 38.5625 C-9.25282492 35.48255632 -6.66333223 34.6186113 -1 35.5625 C2.41147754 37.26823877 4.38347495 38.59750427 6.4375 41.8125 C7.56684779 47.33375584 6.93740688 51.11378028 3.9375 55.75 C-1.63674956 61.66257106 -9.03766619 65.46573756 -17.171875 65.8984375 C-29.45421756 66.14251055 -38.25851996 64.60907615 -47.9609375 56.53515625 C-55.39507382 49.34312782 -59.0071048 40.24907911 -59.3125 29.9375 C-58.80346728 18.47408319 -54.40887942 9.02328729 -45.99609375 1.09765625 C-32.41467396 -9.34754527 -14.16473845 -9.32511948 0 0 Z " fill="#D3D3D3" transform="translate(1220,241.4375)"/>
<path d="M0 0 C7.13868866 5.13934318 7.13868866 5.13934318 8.0546875 9.703125 C8.28292577 14.39305332 8.11171104 17.61121609 4.98828125 21.25390625 C3.54915351 22.69007891 2.08655493 24.10278341 0.61328125 25.50390625 C-0.53767766 26.67986367 -1.68446334 27.85991327 -2.828125 29.04296875 C-4.07559587 30.32281174 -5.32430591 31.60144801 -6.57421875 32.87890625 C-7.18023926 33.49862305 -7.78625977 34.11833984 -8.41064453 34.75683594 C-8.99442871 35.34110352 -9.57821289 35.92537109 -10.1796875 36.52734375 C-10.70071045 37.05247559 -11.2217334 37.57760742 -11.75854492 38.11865234 C-15.04182028 40.91207031 -16.94518168 41.51091477 -21.32421875 41.44140625 C-24.37501998 40.92818735 -25.68174847 40.31336622 -28.38671875 38.56640625 C-31.20935501 34.24424447 -31.3183111 30.5328561 -30.38671875 25.50390625 C-28.38671875 22.37890625 -28.38671875 22.37890625 -26.38671875 20.50390625 C-29.14465513 22.13038155 -31.04347704 23.43356079 -32.046875 26.5625 C-32.79467775 31.65959228 -32.54667745 35.22267188 -29.38671875 39.50390625 C-25.08494346 42.67902611 -21.60613085 42.85822473 -16.50390625 42.09375 C-13.48966554 41.25398921 -11.60773064 39.65761475 -9.38671875 37.50390625 C-5.92421632 35.77265504 -2.17263646 36.02575401 1.61328125 36.50390625 C5.08388293 38.57149874 7.39053518 40.61335058 8.61328125 44.50390625 C9.07145915 49.54386319 8.78171349 52.51781408 5.61328125 56.50390625 C-1.02541776 63.58518519 -8.39080204 66.60299443 -18.0065918 66.97729492 C-30.34270288 67.11522046 -38.11371312 64.5499391 -47.1875 55.875 C-55.53906747 46.87073454 -56.9756456 37.79882671 -56.6875 25.92578125 C-56.21298854 16.63863515 -52.37013609 10.44871556 -46.03125 3.7734375 C-32.99531863 -7.41397184 -14.63304125 -9.17259378 0 0 Z " fill="#D5D5D5" transform="translate(466.38671875,240.49609375)"/>
<path d="M0 0 C0.71397949 0.10916748 1.42795898 0.21833496 2.16357422 0.33081055 C6.74607793 1.15939937 9.66207216 2.42577622 12.9375 5.75 C14.34579593 8.33721033 14.81696333 10.81328828 14.9375 13.75 C13.54650117 18.46394049 12.15181177 21.21840808 7.9375 23.75 C5.59765625 24.078125 5.59765625 24.078125 3 24 C2.04609375 23.97421875 1.0921875 23.9484375 0.109375 23.921875 C-5.29004058 23.62929583 -10.67659981 23.22950781 -16.0625 22.75 C-14.90492188 22.99234375 -13.74734375 23.2346875 -12.5546875 23.484375 C-11.01547854 23.82225014 -9.47642399 24.16082925 -7.9375 24.5 C-6.79667969 24.73589844 -6.79667969 24.73589844 -5.6328125 24.9765625 C2.1416025 26.71910379 7.28265958 30.15564274 11.9375 36.75 C14.72428609 43.91602139 14.9703813 50.7509259 11.96484375 57.80078125 C8.54242612 64.29426565 4.52547224 67.36125322 -2.27807617 69.94287109 C-6.84551732 71.26684834 -11.21163704 71.30242091 -15.9375 71.1875 C-16.89841553 71.17356201 -17.85933105 71.15962402 -18.84936523 71.14526367 C-27.26675113 70.92687971 -35.14545939 70.43816513 -42.25 65.5625 C-44.58709059 61.93598012 -45.34078425 59.05075652 -45.0625 54.75 C-43.85316498 50.97972024 -42.71572877 49.26923312 -39.625 46.8125 C-34.30032205 45.22443816 -29.51438676 46.07602134 -24.0625 46.75 C-21.97979784 46.94438554 -19.8964806 47.13233652 -17.8125 47.3125 C-16.22912374 47.45786647 -14.64577327 47.60351606 -13.0625 47.75 C-14.74666016 47.42128906 -14.74666016 47.42128906 -16.46484375 47.0859375 C-34.88996782 43.27419753 -34.88996782 43.27419753 -40.44921875 35.9140625 C-44.21165074 29.65654403 -44.85669574 23.88841818 -44.0625 16.75 C-42.02017727 9.77621507 -38.56159571 5.49456609 -32.30078125 1.8671875 C-22.21204823 -3.16837558 -10.81898179 -1.76337936 0 0 Z " fill="#D5D5D5" transform="translate(307.0625,236.25)"/>
<path d="M0 0 C0.70930664 0.10086914 1.41861328 0.20173828 2.14941406 0.30566406 C7.41455427 1.22924185 10.33628236 2.94449326 14.0625 6.8125 C15.3296698 9.82333732 15.41584624 12.57539252 15.0625 15.8125 C13.10414766 19.65926353 11.64800738 21.42216175 8.0625 23.8125 C0.52200732 24.67135921 -7.41462116 23.47281538 -14.9375 22.8125 C-13.30941406 23.17601562 -13.30941406 23.17601562 -11.6484375 23.546875 C-10.20297493 23.88477534 -8.75767061 24.22335313 -7.3125 24.5625 C-6.24322266 24.79839844 -6.24322266 24.79839844 -5.15234375 25.0390625 C2.45634717 26.8539796 7.44996189 30.40619707 12.0625 36.8125 C15.03453112 43.03961282 15.03903721 50.43279571 13.0625 57 C10.33311806 63.3599749 4.41634338 67.68005763 -1.8671875 70.23022461 C-6.03276875 71.40179434 -10.26620105 71.25127175 -14.5625 71.1875 C-15.53437256 71.17807373 -16.50624512 71.16864746 -17.50756836 71.15893555 C-26.27728245 70.97576186 -34.6279774 70.49578766 -42.25 65.75 C-44.74230902 61.41153614 -44.88016862 57.68944675 -43.9375 52.8125 C-42.65141989 49.74806031 -41.694674 49.00698543 -38.9375 46.8125 C-32.68133021 45.16938564 -26.61700487 46.04269865 -20.375 47.25 C-19.55708984 47.39759766 -18.73917969 47.54519531 -17.89648438 47.69726562 C-15.90807943 48.0577367 -13.92245572 48.43349551 -11.9375 48.8125 C-11.9375 48.1525 -11.9375 47.4925 -11.9375 46.8125 C-12.81148437 46.77382813 -12.81148437 46.77382813 -13.703125 46.734375 C-22.33074908 46.13749535 -32.84936144 44.47140155 -38.9375 37.8125 C-43.22020069 31.68178462 -44.431369 26.22053499 -43.9375 18.8125 C-42.58272564 11.80247488 -39.63490264 7.12658266 -33.9375 2.8125 C-23.65538863 -3.13799849 -11.26320524 -1.7866449 0 0 Z " fill="#D5D5D5" transform="translate(872.9375,236.1875)"/>
<path d="M0 0 C0.71406006 0.10078857 1.42812012 0.20157715 2.16381836 0.30541992 C7.20233585 1.1926722 9.71188044 2.89175638 12.9375 6.8125 C14.55179923 10.04109847 14.53320657 13.32243653 13.9375 16.8125 C12.20147895 19.83758145 10.10169863 22.23040069 6.9375 23.8125 C-0.71549833 24.34029299 -8.44367416 23.48123706 -16.0625 22.8125 C-15.01191406 23.03164063 -13.96132812 23.25078125 -12.87890625 23.4765625 C4.30583741 27.26719438 4.30583741 27.26719438 10.36328125 34.51953125 C13.95373982 40.3802454 13.84395783 47.18104537 12.9375 53.8125 C11.0677373 59.91818528 8.24036237 64.36098539 2.87890625 67.875 C-3.32854267 70.87256085 -8.84437155 71.16536432 -15.625 71.125 C-16.60138428 71.11936035 -17.57776855 71.1137207 -18.58374023 71.10791016 C-37.71241604 70.78785777 -37.71241604 70.78785777 -43.375 65.1875 C-45.53005396 60.87739209 -46.01332805 57.54047069 -45.0625 52.8125 C-42.92771115 49.22910444 -40.92384855 47.31185343 -37.0625 45.8125 C-29.04801275 45.66765987 -20.92040355 47.37745733 -13.0625 48.8125 C-13.0625 48.1525 -13.0625 47.4925 -13.0625 46.8125 C-13.66835937 46.77511719 -14.27421875 46.73773438 -14.8984375 46.69921875 C-25.49485274 45.86780771 -33.76534464 43.98671731 -41.0625 35.8125 C-44.90429169 29.98784808 -45.64290755 23.92325888 -44.375 17.1875 C-42.35256967 9.48111516 -37.78024774 4.80348667 -31.0625 0.8125 C-21.22084048 -2.92054327 -10.20359196 -1.59972036 0 0 Z " fill="#D5D5D5" transform="translate(240.0625,236.1875)"/>
<path d="M0 0 C1.39365803 -0.01151247 2.78727221 -0.03195327 4.18066406 -0.06152344 C6.20171856 -0.10439211 8.22146611 -0.12039378 10.24291992 -0.13061523 C12.05240112 -0.15248901 12.05240112 -0.15248901 13.8984375 -0.17480469 C19.16035818 0.55522755 22.20680414 3.07409667 25.66088867 6.98266602 C28.04721471 11.84709986 28.28855942 16.099153 26.66088867 21.28735352 C24.2095178 26.38708041 20.46320164 28.39938413 15.28588867 30.29516602 C13.97871207 30.68832066 12.66636929 31.06490787 11.34838867 31.42016602 C10.33776367 31.70891602 9.32713867 31.99766602 8.28588867 32.29516602 C6.93425193 34.9984395 7.1413878 37.16217156 7.11010742 40.18579102 C7.08625977 41.37043945 7.06241211 42.55508789 7.0378418 43.77563477 C6.99514311 46.27286109 6.96374694 48.77030826 6.9440918 51.26782227 C6.68124867 62.55173884 6.68124867 62.55173884 2.28588867 67.29516602 C-2.11127676 71.27355379 -5.65448683 71.87309141 -11.38208008 71.61547852 C-15.87660005 70.99814076 -18.00150332 69.08695269 -20.96411133 65.79516602 C-23.40602489 62.30671807 -23.84173244 59.70253814 -23.87524414 55.55175781 C-23.88485168 54.59033371 -23.89445923 53.62890961 -23.90435791 52.63835144 C-23.90860779 51.60084244 -23.91285767 50.56333344 -23.91723633 49.49438477 C-23.92578644 47.89068779 -23.92578644 47.89068779 -23.93450928 46.2545929 C-23.94395949 43.99086497 -23.95049334 41.72712328 -23.9543457 39.46337891 C-23.96404398 36.00667193 -23.99506476 32.55056136 -24.02661133 29.09399414 C-24.03314224 26.89412788 -24.03839237 24.69425736 -24.04223633 22.49438477 C-24.05458313 21.46294846 -24.06692993 20.43151215 -24.07965088 19.36882019 C-24.0628257 13.92573266 -23.84014483 9.9669531 -20.71411133 5.29516602 C-14.34304671 -0.59806875 -8.3065836 0.04778943 0 0 Z " fill="#D5D5D5" transform="translate(755.714111328125,235.704833984375)"/>
<path d="M0 0 C0.33 0 0.66 0 1 0 C1.06962306 8.37129108 1.12287344 16.74246043 1.15543652 25.1139698 C1.17106807 29.00153991 1.19226004 32.88891138 1.22631836 36.77636719 C1.25900201 40.53056659 1.27687189 44.28457536 1.28463173 48.0389061 C1.29015915 49.46859613 1.3009529 50.89827616 1.31719017 52.32788467 C1.33908159 54.33583584 1.3402264 56.34398031 1.34057617 58.35205078 C1.34723801 59.49344513 1.35389984 60.63483948 1.36076355 61.81082153 C0.87564105 66.09934303 -0.57695927 69.47557215 -3.53515625 72.64453125 C-9.76368758 77.4075258 -14.2061468 77.73449925 -22 77 C-27.01791684 74.58064724 -30.49958655 71.0008269 -33 66 C-33.14997911 64.67354984 -33.24835703 63.34097906 -33.31640625 62.0078125 C-33.35830078 61.22019531 -33.40019531 60.43257813 -33.44335938 59.62109375 C-33.48267578 58.79738281 -33.52199219 57.97367187 -33.5625 57.125 C-33.60568359 56.30902344 -33.64886719 55.49304688 -33.69335938 54.65234375 C-34.44548788 40.01568422 -26.07845557 31.8214344 -16.828125 21.2578125 C-13.37229559 17.30666276 -10.16847578 13.18331765 -7 9 C-5.71170582 7.30992393 -4.42006535 5.6223931 -3.125 3.9375 C-2.55007812 3.18339844 -1.97515625 2.42929688 -1.3828125 1.65234375 C-0.92648438 1.10707031 -0.47015625 0.56179687 0 0 Z " fill="#D3AFC5" transform="translate(145,230)"/>
<path d="M0 0 C3.98561154 2.62688033 6.23980531 5.28191592 7.75 9.8125 C7.85537871 11.23796971 7.90841325 12.66768521 7.92700195 14.09692383 C7.93983719 14.95824417 7.95267242 15.81956451 7.96589661 16.70698547 C7.97328354 17.63512558 7.98067047 18.56326569 7.98828125 19.51953125 C8.00038887 20.95675789 8.00038887 20.95675789 8.01274109 22.42301941 C8.02657193 24.45134679 8.03729856 26.47969736 8.04516602 28.50805664 C8.06237669 31.60282701 8.10627169 34.69652837 8.15039062 37.79101562 C8.16051812 39.76301299 8.16903405 41.73501942 8.17578125 43.70703125 C8.19328934 44.62909866 8.21079742 45.55116608 8.22883606 46.50117493 C8.20567372 53.3953012 6.67055922 56.42465131 2.1875 61.625 C-1.76108365 64.88687345 -7.4368517 64.23673583 -12.25 63.8125 C-16.97403852 61.8612667 -19.97471109 58.36307782 -22.25 53.8125 C-22.35912299 52.43053571 -22.40895471 51.04361912 -22.42700195 49.6574707 C-22.43983719 48.79930252 -22.45267242 47.94113434 -22.46589661 47.05696106 C-22.47328354 46.12679672 -22.48067047 45.19663239 -22.48828125 44.23828125 C-22.496353 43.28108688 -22.50442474 42.32389252 -22.51274109 41.33769226 C-22.52658872 39.30758478 -22.53730782 37.27745395 -22.54516602 35.24731445 C-22.56233536 32.15465539 -22.60621032 29.06307738 -22.65039062 25.97070312 C-22.66052141 23.99740369 -22.66903631 22.02409516 -22.67578125 20.05078125 C-22.69328934 19.13073807 -22.71079742 18.21069489 -22.72883606 17.26277161 C-22.70868549 11.24336985 -21.72305286 7.76046687 -18.25 2.8125 C-13.03108336 -2.1454708 -6.565322 -2.39886766 0 0 Z " fill="#D5D5D5" transform="translate(715.25,242.1875)"/>
<path d="M0 0 C3.98561154 2.62688033 6.23980531 5.28191592 7.75 9.8125 C7.85537871 11.23796971 7.90841325 12.66768521 7.92700195 14.09692383 C7.93983719 14.95824417 7.95267242 15.81956451 7.96589661 16.70698547 C7.97328354 17.63512558 7.98067047 18.56326569 7.98828125 19.51953125 C8.00038887 20.95675789 8.00038887 20.95675789 8.01274109 22.42301941 C8.02657193 24.45134679 8.03729856 26.47969736 8.04516602 28.50805664 C8.06237669 31.60282701 8.10627169 34.69652837 8.15039062 37.79101562 C8.16051812 39.76301299 8.16903405 41.73501942 8.17578125 43.70703125 C8.19328934 44.62909866 8.21079742 45.55116608 8.22883606 46.50117493 C8.20567372 53.3953012 6.67055922 56.42465131 2.1875 61.625 C-1.76108365 64.88687345 -7.4368517 64.23673583 -12.25 63.8125 C-16.97403852 61.8612667 -19.97471109 58.36307782 -22.25 53.8125 C-22.35912299 52.43053571 -22.40895471 51.04361912 -22.42700195 49.6574707 C-22.43983719 48.79930252 -22.45267242 47.94113434 -22.46589661 47.05696106 C-22.47328354 46.12679672 -22.48067047 45.19663239 -22.48828125 44.23828125 C-22.496353 43.28108688 -22.50442474 42.32389252 -22.51274109 41.33769226 C-22.52658872 39.30758478 -22.53730782 37.27745395 -22.54516602 35.24731445 C-22.56233536 32.15465539 -22.60621032 29.06307738 -22.65039062 25.97070312 C-22.66052141 23.99740369 -22.66903631 22.02409516 -22.67578125 20.05078125 C-22.69328934 19.13073807 -22.71079742 18.21069489 -22.72883606 17.26277161 C-22.70868549 11.24336985 -21.72305286 7.76046687 -18.25 2.8125 C-13.03108336 -2.1454708 -6.565322 -2.39886766 0 0 Z " fill="#D4D4D4" transform="translate(918.25,242.1875)"/>
<path d="M0 0 C3.5677811 2.35149209 5.84221079 4.99692157 7.75 8.8125 C7.85952443 10.26106141 7.90900711 11.71440761 7.92700195 13.16699219 C7.93983719 14.06842957 7.95267242 14.96986694 7.96589661 15.89862061 C7.97328354 16.87566956 7.98067047 17.85271851 7.98828125 18.859375 C7.996353 19.86333313 8.00442474 20.86729126 8.01274109 21.90167236 C8.02658842 24.03013377 8.03730766 26.15861744 8.04516602 28.28710938 C8.06235757 31.53558748 8.10623592 34.78304238 8.15039062 38.03125 C8.16051934 40.09895085 8.16903488 42.16666035 8.17578125 44.234375 C8.19328934 45.20332703 8.21079742 46.17227905 8.22883606 47.17059326 C8.20999007 53.05871568 7.61338597 56.29900995 3.75 60.8125 C-0.21114362 64.41353966 -4.46469922 64.31282479 -9.58984375 64.16796875 C-14.30357257 63.53808722 -16.96124487 61.23457462 -20.0625 57.8125 C-21.99286974 54.56135097 -22.3741011 51.45834717 -22.42700195 47.72167969 C-22.43983719 46.92695251 -22.45267242 46.13222534 -22.46589661 45.31341553 C-22.47328354 44.46233215 -22.48067047 43.61124878 -22.48828125 42.734375 C-22.496353 41.84897034 -22.50442474 40.96356567 -22.51274109 40.05133057 C-22.52655503 38.17860863 -22.53728919 36.30586179 -22.54516602 34.43310547 C-22.55667922 32.52645442 -22.57712059 30.61983543 -22.60668945 28.71337891 C-22.64954118 25.94932287 -22.66555951 23.18622274 -22.67578125 20.421875 C-22.69328934 19.57888855 -22.71079742 18.7359021 -22.72883606 17.86737061 C-22.70799044 12.1148418 -21.62486285 7.56004238 -18.25 2.8125 C-12.70235692 -1.96137487 -6.87030751 -2.51030467 0 0 Z " fill="#FDCEEC" transform="translate(1354.25,242.1875)"/>
<path d="M0 0 C3.5677811 2.35149209 5.84221079 4.99692157 7.75 8.8125 C7.85952443 10.26106141 7.90900711 11.71440761 7.92700195 13.16699219 C7.93983719 14.06842957 7.95267242 14.96986694 7.96589661 15.89862061 C7.97328354 16.87566956 7.98067047 17.85271851 7.98828125 18.859375 C7.996353 19.86333313 8.00442474 20.86729126 8.01274109 21.90167236 C8.02658842 24.03013377 8.03730766 26.15861744 8.04516602 28.28710938 C8.06235757 31.53558748 8.10623592 34.78304238 8.15039062 38.03125 C8.16051934 40.09895085 8.16903488 42.16666035 8.17578125 44.234375 C8.19328934 45.20332703 8.21079742 46.17227905 8.22883606 47.17059326 C8.20999007 53.05871568 7.61338597 56.29900995 3.75 60.8125 C-0.21114362 64.41353966 -4.46469922 64.31282479 -9.58984375 64.16796875 C-14.30357257 63.53808722 -16.96124487 61.23457462 -20.0625 57.8125 C-21.99286974 54.56135097 -22.3741011 51.45834717 -22.42700195 47.72167969 C-22.43983719 46.92695251 -22.45267242 46.13222534 -22.46589661 45.31341553 C-22.47328354 44.46233215 -22.48067047 43.61124878 -22.48828125 42.734375 C-22.496353 41.84897034 -22.50442474 40.96356567 -22.51274109 40.05133057 C-22.52655503 38.17860863 -22.53728919 36.30586179 -22.54516602 34.43310547 C-22.55667922 32.52645442 -22.57712059 30.61983543 -22.60668945 28.71337891 C-22.64954118 25.94932287 -22.66555951 23.18622274 -22.67578125 20.421875 C-22.69328934 19.57888855 -22.71079742 18.7359021 -22.72883606 17.86737061 C-22.70799044 12.1148418 -21.62486285 7.56004238 -18.25 2.8125 C-12.70235692 -1.96137487 -6.87030751 -2.51030467 0 0 Z " fill="#D4D4D4" transform="translate(811.25,242.1875)"/>
<path d="M0 0 C4.37406801 2.2282988 7.30228616 4.90347157 10 9 C11.20774839 13.36739327 11.17780993 17.76662143 11.203125 22.265625 C11.20882507 23.05845886 11.21452515 23.85129272 11.22039795 24.66815186 C11.2298179 26.34239378 11.23636995 28.016654 11.24023438 29.69091797 C11.24991557 32.22787571 11.28095675 34.76401412 11.3125 37.30078125 C11.41481418 52.76481176 11.41481418 52.76481176 8 60 C3.0571059 64.82233571 -0.52772272 65.35147673 -7.234375 65.28125 C-12.01721606 64.79485938 -14.65876846 62.64011153 -17.62475586 59.01318359 C-19.66329827 54.54670206 -19.48736295 50.3343031 -19.50390625 45.4765625 C-19.51389145 44.45702484 -19.52387665 43.43748718 -19.53416443 42.38705444 C-19.54932857 40.23366343 -19.55639075 38.08020217 -19.5559082 35.92675781 C-19.56246468 32.64269122 -19.61695232 29.3616563 -19.67382812 26.078125 C-19.68263192 23.98178113 -19.68858498 21.88542296 -19.69140625 19.7890625 C-19.7129628 18.81280914 -19.73451935 17.83655579 -19.75672913 16.83071899 C-19.69784804 10.9341946 -18.78263753 7.65373555 -14.67881775 3.34725952 C-10.09604545 -0.33043784 -5.70831577 -0.80412796 0 0 Z " fill="#D3D3D3" transform="translate(175,241)"/>
<path d="M0 0 C0.33 0 0.66 0 1 0 C1.309375 1.134375 1.61875 2.26875 1.9375 3.4375 C2.62924531 6.78775099 2.62924531 6.78775099 4 8 C6.43719304 8.1106776 8.85080995 8.16161194 11.2890625 8.17578125 C12.80339901 8.19899927 14.31772194 8.22311738 15.83203125 8.24804688 C18.22160658 8.28302224 20.61068936 8.31241911 23.00048828 8.32592773 C25.30562604 8.34151271 27.6093133 8.38180727 29.9140625 8.42578125 C30.61850494 8.42387283 31.32294739 8.42196442 32.04873657 8.41999817 C37.52611966 8.5534309 40.57200265 10.00179797 45 13 C49.87101261 18.38375078 50.35423213 21.81568594 50.27734375 28.94921875 C49.86925987 33.43814144 48.80164838 35.46107573 46 39 C39.98581863 43.76122692 35.42287449 44.14941029 27.953125 44.09765625 C27.18192322 44.0962413 26.41072144 44.09482635 25.6161499 44.09336853 C23.16072662 44.08778534 20.70539558 44.07523595 18.25 44.0625 C16.58203257 44.05748283 14.91406371 44.0529203 13.24609375 44.04882812 C9.16402713 44.03782141 5.08202919 44.02056836 1 44 C0.08964496 41.26893489 -0.12215713 39.70106761 -0.11352539 36.89575195 C-0.11344986 36.07512772 -0.11337433 35.25450348 -0.11329651 34.40901184 C-0.10813522 33.52767075 -0.10297394 32.64632965 -0.09765625 31.73828125 C-0.0962413 30.83248825 -0.09482635 29.92669525 -0.09336853 28.99345398 C-0.08777001 26.09976909 -0.07521781 23.20616151 -0.0625 20.3125 C-0.05748481 18.35091258 -0.05292193 16.38932394 -0.04882812 14.42773438 C-0.03780107 9.61845979 -0.02053747 4.809243 0 0 Z " fill="#F4CAE5" transform="translate(639,262)"/>
<path d="M0 0 C4.33123134 2.40908726 7.09404667 5.85687128 8.8125 10.5 C9.2917625 14.24423827 9.17533371 15.93223243 7.125 19.140625 C6.361875 20.00171875 5.59875 20.8628125 4.8125 21.75 C3.9875 22.70390625 3.1625 23.6578125 2.3125 24.640625 C1.4875 25.58421875 0.6625 26.5278125 -0.1875 27.5 C-1.53073752 29.15869482 -2.864601 30.82503917 -4.1875 32.5 C-6.93600506 35.95464272 -9.73639263 39.35867116 -12.5625 42.75 C-16.62582931 47.67546179 -20.32337751 52.8052749 -23.91357422 58.08105469 C-24.95746813 59.58801031 -26.06701522 61.0490887 -27.1875 62.5 C-27.8475 62.5 -28.5075 62.5 -29.1875 62.5 C-29.1875 61.84 -29.1875 61.18 -29.1875 60.5 C-28.5275 60.5 -27.8675 60.5 -27.1875 60.5 C-27.1875 59.51 -27.1875 58.52 -27.1875 57.5 C-26.5275 57.5 -25.8675 57.5 -25.1875 57.5 C-25.1875 56.51 -25.1875 55.52 -25.1875 54.5 C-24.1975 54.005 -24.1975 54.005 -23.1875 53.5 C-23.38221111 51.55000871 -23.38221111 51.55000871 -24.1875 49.5 C-26.1712767 48.21563266 -26.1712767 48.21563266 -28.1875 47.5 C-28.1875 46.84 -28.1875 46.18 -28.1875 45.5 C-28.72375 45.438125 -29.26 45.37625 -29.8125 45.3125 C-35.54618003 43.35097788 -38.3600347 39.62807075 -41.0625 34.4375 C-42.75746365 30.97828173 -43.1875 29.47593111 -43.1875 25.5 C-41.52529419 24.49260254 -39.85729326 23.49477045 -38.1875 22.5 C-36.48001952 20.7471078 -34.92577338 18.89089783 -33.33984375 17.02734375 C-30.65916209 13.87961048 -27.94409648 10.76888146 -25.1875 7.6875 C-24.70144287 7.12434082 -24.21538574 6.56118164 -23.71459961 5.98095703 C-17.35255621 -1.07996728 -9.0453641 -3.82557692 0 0 Z " fill="#FACFEA" transform="translate(137.1875,213.5)"/>
<path d="M0 0 C3.41920122 1.9660407 5.77214166 4.14592781 8.5 6.984375 C9.81097656 8.33595703 9.81097656 8.33595703 11.1484375 9.71484375 C12.12683594 10.74544922 12.12683594 10.74544922 13.125 11.796875 C13.81335937 11.19939453 13.81335937 11.19939453 14.515625 10.58984375 C17.64771585 7.88545438 20.76377459 5.21695729 24.125 2.796875 C22.82780076 5.65466517 21.4613174 7.70696036 19.23583984 9.91308594 C18.6553891 10.49338562 18.07493835 11.0736853 17.47689819 11.67156982 C16.85288116 12.28526428 16.22886414 12.89895874 15.5859375 13.53125 C14.62465439 14.48828827 14.62465439 14.48828827 13.64395142 15.46466064 C11.60062179 17.49681569 9.55044018 19.52189718 7.5 21.546875 C6.1115214 22.9253203 4.7234951 24.30422136 3.3359375 25.68359375 C-0.06248697 29.05999394 -3.46707254 32.43006788 -6.875 35.796875 C-8.05328369 34.61424072 -8.05328369 34.61424072 -9.25537109 33.40771484 C-10.74440363 31.92367813 -12.24695677 30.45224566 -13.7890625 29.0234375 C-17.75404493 25.31192427 -20.3943696 22.16416021 -21.875 16.796875 C-21.99995956 11.61997913 -21.39221893 6.76792863 -17.875 2.796875 C-12.17077182 -1.11753892 -6.64790475 -2.78200362 0 0 Z " fill="#CECECE" transform="translate(1392.875,236.203125)"/>
<path d="M0 0 C2 1 2 1 2.84375 2.7890625 C4.74565978 6.42582243 7.91109656 8.83389717 10.90625 11.5859375 C13.765692 14.88283145 14.83574702 17.97763521 15.1875 22.30859375 C14.72358721 27.57593685 13.38762103 30.81308869 9.66796875 34.62109375 C6.01576815 37.64036029 2.593677 38.2068626 -2 37.875 C-9.8332775 36.55211253 -14.21102851 30.83744454 -19 25 C-21.49361571 26.20381448 -23.68143083 27.45428722 -26 29 C-24.57925676 25.754387 -22.86237319 23.6373841 -20.33203125 21.171875 C-19.60306641 20.45386719 -18.87410156 19.73585938 -18.12304688 18.99609375 C-17.36056641 18.25488281 -16.59808594 17.51367188 -15.8125 16.75 C-10.29116337 11.35795746 -4.98931594 5.89184061 0 0 Z " fill="#CECECE" transform="translate(1427,269)"/>
<path d="M0 0 C3.43081498 3.02238463 5.24469911 5.67152163 5.90625 10.265625 C6.12254647 14.98809798 5.27293349 18.29494573 2.625 22.3125 C-2.30144832 26.75831921 -5.3263878 27.66336982 -11.83203125 27.59765625 C-16.47721772 27.07676744 -19.19645066 24.65360787 -22.1875 21.25 C-24.69577023 17.1575591 -24.96740896 12.9830866 -24.375 8.3125 C-22.97521869 3.89026094 -20.68618129 1.14306873 -16.6875 -1.1875 C-10.74563873 -3.75456111 -5.65796761 -2.82898381 0 0 Z " fill="#D2D2D2" transform="translate(920.375,211.6875)"/>
<path d="M0 0 C3.43081498 3.02238463 5.24469911 5.67152163 5.90625 10.265625 C6.12254647 14.98809798 5.27293349 18.29494573 2.625 22.3125 C-2.30144832 26.75831921 -5.3263878 27.66336982 -11.83203125 27.59765625 C-16.47721772 27.07676744 -19.19645066 24.65360787 -22.1875 21.25 C-24.69577023 17.1575591 -24.96740896 12.9830866 -24.375 8.3125 C-22.97521869 3.89026094 -20.68618129 1.14306873 -16.6875 -1.1875 C-10.74563873 -3.75456111 -5.65796761 -2.82898381 0 0 Z " fill="#F9CEE9" transform="translate(717.375,211.6875)"/>
<path d="M0 0 C3.84727094 2.09210049 6.36438494 4.94426673 8 9 C8.56465681 13.50992128 8.55605009 17.65377346 6.8125 21.875 C3.85027889 25.34794889 0.51933263 28.7235984 -4.171875 29.23828125 C-10.0102038 29.40635435 -13.42827085 29.01420121 -18 25 C-21.74659412 20.71557363 -22.1323236 16.56641259 -22 11 C-20.3044173 5.7137716 -17.36069001 3.1796698 -13 0 C-8.55266845 -1.48244385 -4.5416232 -1.03828711 0 0 Z " fill="#CECECE" transform="translate(1354,210)"/>
<path d="M0 0 C3.84727094 2.09210049 6.36438494 4.94426673 8 9 C8.56465681 13.50992128 8.55605009 17.65377346 6.8125 21.875 C3.85027889 25.34794889 0.51933263 28.7235984 -4.171875 29.23828125 C-10.0102038 29.40635435 -13.42827085 29.01420121 -18 25 C-21.74659412 20.71557363 -22.1323236 16.56641259 -22 11 C-20.3044173 5.7137716 -17.36069001 3.1796698 -13 0 C-8.55266845 -1.48244385 -4.5416232 -1.03828711 0 0 Z " fill="#D2D2D2" transform="translate(811,210)"/>
<path d="M0 0 C4.26962895 3.20222171 6.05581725 6.40720848 6.8515625 11.66796875 C7.0456158 16.72217524 5.79072553 19.89585134 2.5625 23.71875 C-1.8584803 27.40290025 -5.05998199 28.36316972 -10.74609375 28.22265625 C-14.66978166 27.68670563 -16.87015455 26.26858564 -20.0625 23.90625 C-23.4545434 19.25316458 -23.68853351 15.48787887 -23.54296875 9.859375 C-22.79079532 5.23626027 -20.75896002 2.67647061 -17.0625 -0.09375 C-11.65999946 -2.97508362 -5.41573559 -2.87198099 0 0 Z " fill="#FCD1EC" transform="translate(179.0625,211.09375)"/>
<path d="M0 0 C0.66 0.33 1.32 0.66 2 1 C-4.43003026 7.78725416 -4.43003026 7.78725416 -9.359375 8.1953125 C-10.54273438 8.16050781 -10.54273438 8.16050781 -11.75 8.125 C-12.54921875 8.10695312 -13.3484375 8.08890625 -14.171875 8.0703125 C-14.77515625 8.04710937 -15.3784375 8.02390625 -16 8 C-16 7.01 -16 6.02 -16 5 C-15.09636719 4.89042969 -14.19273437 4.78085938 -13.26171875 4.66796875 C-12.08222656 4.50941406 -10.90273437 4.35085937 -9.6875 4.1875 C-7.92986328 3.96126953 -7.92986328 3.96126953 -6.13671875 3.73046875 C-3.00579726 3.00135005 -1.90354807 2.50828536 0 0 Z " fill="#E7BFD8" transform="translate(182,231)"/>
<path d="M0 0 C0.33 0 0.66 0 1 0 C2.29243536 4.1196377 3.26252625 7.66831683 3 12 C0.89366282 10.29171079 0.06198392 9.47851584 -0.29296875 6.73828125 C-0.25816406 5.93777344 -0.22335938 5.13726562 -0.1875 4.3125 C-0.16042969 3.50425781 -0.13335937 2.69601563 -0.10546875 1.86328125 C-0.07066406 1.24839844 -0.03585938 0.63351563 0 0 Z " fill="#E4BDD6" transform="translate(156,221)"/>
<path d="M0 0 C0.33 0 0.66 0 1 0 C3.21538462 7.26153846 3.21538462 7.26153846 2.125 11 C1.75375 11.66 1.3825 12.32 1 13 C0.67 13 0.34 13 0 13 C0 8.71 0 4.42 0 0 Z " fill="#E8C9DD" transform="translate(639,262)"/>
</svg>
