<?xml version="1.0" encoding="UTF-8"?>
<!DOCTYPE svg PUBLIC "-//W3C//DTD SVG 1.1//EN" "http://www.w3.org/Graphics/SVG/1.1/DTD/svg11.dtd">
<svg xmlns="http://www.w3.org/2000/svg" version="1.1" width="1500px" height="239px" style="shape-rendering:geometricPrecision; text-rendering:geometricPrecision; image-rendering:optimizeQuality; fill-rule:evenodd; clip-rule:evenodd" xmlns:xlink="http://www.w3.org/1999/xlink">
<g><path style="opacity:0.945" fill="#62cc6a" d="M 177.5,60.5 C 194.347,59.1793 201.847,66.846 200,83.5C 192.763,95.3458 183.263,97.5124 171.5,90C 163.33,77.9613 165.33,68.128 177.5,60.5 Z"/></g>
<g><path style="opacity:0.739" fill="#3ac3b9" d="M 807.5,60.5 C 807.082,61.2216 806.416,61.7216 805.5,62C 802.854,62.4974 800.187,62.6641 797.5,62.5C 797.918,61.7784 798.584,61.2784 799.5,61C 802.146,60.5026 804.813,60.3359 807.5,60.5 Z"/></g>
<g><path style="opacity:0.957" fill="#22afa3" d="M 1343.5,92.5 C 1343.31,90.0882 1341.97,89.0882 1339.5,89.5C 1337.44,87.5899 1335.94,85.2565 1335,82.5C 1333.66,66.1728 1341.16,59.0061 1357.5,61C 1368.03,66.229 1371.19,74.3957 1367,85.5C 1361.01,93.9974 1353.17,96.3307 1343.5,92.5 Z"/></g>
<g><path style="opacity:0.972" fill="#62cc6a" d="M 369.5,61.5 C 380.062,59.6925 387.229,63.6925 391,73.5C 391.5,84.1615 391.667,94.8281 391.5,105.5C 399.725,102.05 407.392,97.5503 414.5,92C 434.663,87.1617 442.83,94.995 439,115.5C 437.954,117.09 436.787,118.59 435.5,120C 430.623,122.932 425.957,126.099 421.5,129.5C 426.152,134.652 430.985,139.652 436,144.5C 442.013,155.79 439.513,164.623 428.5,171C 422.545,173.078 416.879,172.412 411.5,169C 405.652,162.985 399.652,157.152 393.5,151.5C 392.914,151.709 392.414,152.043 392,152.5C 391.634,167.198 384.134,173.698 369.5,172C 364.792,170.622 361.292,167.788 359,163.5C 357.357,133.228 357.023,102.895 358,72.5C 360.437,67.2262 364.271,63.5595 369.5,61.5 Z"/></g>
<g><path style="opacity:0.963" fill="#44b9ad" d="M 807.5,60.5 C 822.1,64.4174 826.267,73.4174 820,87.5C 811.849,95.7067 803.015,96.54 793.5,90C 788.482,83.8484 787.315,77.0151 790,69.5C 791.736,66.2608 794.236,63.9274 797.5,62.5C 800.187,62.6641 802.854,62.4974 805.5,62C 806.416,61.7216 807.082,61.2216 807.5,60.5 Z"/></g>
<g><path style="opacity:0.975" fill="#39c4ba" d="M 1132.5,121.5 C 1122.9,115.023 1113.23,108.523 1103.5,102C 1101.36,100.596 1099.03,99.7628 1096.5,99.5C 1094.65,99.3402 1093.31,100.007 1092.5,101.5C 1085.83,101.334 1079.16,101.5 1072.5,102C 1070.71,102.785 1069.21,103.951 1068,105.5C 1067.96,123.566 1067.29,141.566 1066,159.5C 1059.96,170.85 1050.8,174.35 1038.5,170C 1032.67,166.842 1029.17,162.008 1028,155.5C 1027.33,129.833 1027.33,104.167 1028,78.5C 1029.17,71.9918 1032.67,67.1585 1038.5,64C 1060.1,62.3667 1081.77,62.0333 1103.5,63C 1127.05,70.5646 1137.88,86.7313 1136,111.5C 1135.7,115.245 1134.53,118.578 1132.5,121.5 Z"/></g>
<g><path style="opacity:0.98" fill="#62cc6b" d="M 40.5,80.5 C 44.5212,75.8045 48.1878,70.8045 51.5,65.5C 57.8509,62.786 64.1842,62.9527 70.5,66C 79.8363,75.0031 88.8363,84.3364 97.5,94C 98.1667,94.1667 98.8333,94.3333 99.5,94.5C 103.75,91.7575 107.583,88.4241 111,84.5C 116.888,77.2791 123.388,70.7791 130.5,65C 143.65,60.7067 152.816,64.8734 158,77.5C 158.667,104.833 158.667,132.167 158,159.5C 152.794,171.133 143.96,175.3 131.5,172C 127.052,169.886 123.552,166.719 121,162.5C 119.918,154.664 119.085,146.83 118.5,139C 117.833,138.333 117.167,138.333 116.5,139C 110.028,148.697 101.361,151.363 90.5,147C 86.994,144.66 83.994,141.826 81.5,138.5C 80.7907,145.522 79.9574,152.522 79,159.5C 75.8041,168.356 69.4707,173.022 60,173.5C 50.7719,172.723 44.4385,168.056 41,159.5C 40.5,133.169 40.3334,106.835 40.5,80.5 Z"/></g>
<g><path style="opacity:0.98" fill="#44b9ad" d="M 780.5,78.5 C 767.17,98.4918 753.836,118.492 740.5,138.5C 737.729,140.767 735.062,143.267 732.5,146C 721.229,151.516 711.896,149.182 704.5,139C 703.563,138.308 702.897,138.475 702.5,139.5C 689.167,119.833 675.833,100.167 662.5,80.5C 666.702,66.2299 676.035,61.0632 690.5,65C 692.167,66 693.833,67 695.5,68C 702,75.1667 708.5,82.3333 715,89.5C 717.32,93.2531 720.486,94.5864 724.5,93.5C 732.486,84.3801 740.82,75.5468 749.5,67C 759.573,61.4894 768.74,62.6561 777,70.5C 778.454,73.0711 779.62,75.7378 780.5,78.5 Z"/></g>
<g><path style="opacity:0.735" fill="#64cb6d" d="M 51.5,65.5 C 48.1878,70.8045 44.5212,75.8045 40.5,80.5C 41.4908,73.5129 45.1575,68.5129 51.5,65.5 Z"/></g>
<g><path style="opacity:0.961" fill="#22afa3" d="M 780.5,78.5 C 781.639,104.137 781.806,129.803 781,155.5C 778.778,166.387 772.111,172.387 761,173.5C 751.23,172.789 744.896,167.789 742,158.5C 741.828,151.654 741.328,144.987 740.5,138.5C 753.836,118.492 767.17,98.4918 780.5,78.5 Z"/></g>
<g><path style="opacity:0.97" fill="#39c4ba" d="M 662.5,80.5 C 675.833,100.167 689.167,119.833 702.5,139.5C 702.839,146.574 702.339,153.574 701,160.5C 695.611,171.278 687.111,175.112 675.5,172C 668.903,169.737 664.736,165.237 663,158.5C 662.5,132.502 662.333,106.502 662.5,80.5 Z"/></g>
<g><path style="opacity:0.958" fill="#62cc6a" d="M 237.5,89.5 C 249.145,89.572 260.478,91.4053 271.5,95C 276.607,99.9982 277.773,105.832 275,112.5C 273.127,114.709 270.96,116.542 268.5,118C 258.5,117.667 248.5,117.333 238.5,117C 247.046,118.59 255.379,120.924 263.5,124C 272.017,129.035 276.017,136.535 275.5,146.5C 274.697,159.608 268.031,168.108 255.5,172C 241.141,174.288 227.141,172.955 213.5,168C 208.789,163.86 207.289,158.694 209,152.5C 210.833,149.333 213.333,146.833 216.5,145C 225.586,144.845 234.586,145.679 243.5,147.5C 244.5,147 245.5,146.5 246.5,146C 237.068,144.716 228.068,142.049 219.5,138C 210.358,130.573 207.191,121.073 210,109.5C 212.404,100.763 217.904,94.9294 226.5,92C 230.312,91.2045 233.979,90.3712 237.5,89.5 Z"/></g>
<g><path style="opacity:0.957" fill="#62cc6a" d="M 312.5,89.5 C 322.239,90.037 331.906,91.2037 341.5,93C 350.651,97.4523 353.151,104.286 349,113.5C 347.269,115.617 345.102,117.117 342.5,118C 332.833,117.667 323.167,117.333 313.5,117C 320.115,118.791 326.782,120.457 333.5,122C 349.651,130.159 354.151,142.659 347,159.5C 339.8,169.415 329.967,174.081 317.5,173.5C 307.178,173.28 297.178,171.447 287.5,168C 282.052,162.477 281.219,156.31 285,149.5C 286.731,147.383 288.898,145.883 291.5,145C 300.415,144.797 309.248,145.63 318,147.5C 319.059,147.37 319.892,146.87 320.5,146C 310.617,144.533 301.284,141.533 292.5,137C 282.48,126.315 280.98,114.482 288,101.5C 294.53,93.9464 302.696,89.9464 312.5,89.5 Z"/></g>
<g><path style="opacity:0.959" fill="#62cc6a" d="M 482.5,89.5 C 497.058,88.1822 509.225,92.8488 519,103.5C 521.238,109.015 520.905,114.349 518,119.5C 510.1,128.069 501.6,135.903 492.5,143C 479.651,144.145 474.484,138.312 477,125.5C 478.458,123.04 480.291,120.873 482.5,119C 478.222,119.597 475.389,122.097 474,126.5C 471.885,134.448 474.385,140.615 481.5,145C 484.738,146.368 488.072,146.701 491.5,146C 495.336,143.916 499.003,141.583 502.5,139C 515.623,136.792 521.789,142.292 521,155.5C 514.742,165.722 505.575,171.556 493.5,173C 469.282,174.641 453.782,163.808 447,140.5C 444.059,113.009 455.892,96.0093 482.5,89.5 Z"/></g>
<g><path style="opacity:0.959" fill="#39c5ba" d="M 1179.5,89.5 C 1190.37,88.6977 1200.37,91.1977 1209.5,97C 1217.45,102.36 1219.62,109.527 1216,118.5C 1207.77,127.402 1198.93,135.569 1189.5,143C 1177.14,144.303 1171.97,138.803 1174,126.5C 1175.06,123.438 1176.89,120.938 1179.5,119C 1175.22,119.597 1172.39,122.097 1171,126.5C 1169.17,139.995 1175,146.495 1188.5,146C 1192.64,144.428 1196.31,142.095 1199.5,139C 1210.56,136.248 1216.89,140.414 1218.5,151.5C 1218.41,153.923 1217.91,156.256 1217,158.5C 1201.07,174.793 1182.9,177.626 1162.5,167C 1143.36,152.35 1138.53,133.85 1148,111.5C 1155.4,99.5655 1165.9,92.2321 1179.5,89.5 Z"/></g>
<g><path style="opacity:0.938" fill="#39c4ba" d="M 1404.5,94.5 C 1395.5,101.5 1387.5,109.5 1380.5,118.5C 1377.13,115.49 1375.8,111.656 1376.5,107C 1376.82,96.3471 1382.32,90.5138 1393,89.5C 1397.51,89.7651 1401.35,91.4317 1404.5,94.5 Z"/></g>
<g><path style="opacity:0.972" fill="#38c4ba" d="M 1441.5,130.5 C 1432.47,138.533 1424.13,147.2 1416.5,156.5C 1411.7,160.797 1407.04,165.297 1402.5,170C 1383.66,175.162 1375.16,167.996 1377,148.5C 1381.69,142.317 1386.52,136.317 1391.5,130.5C 1392.24,130.631 1392.91,130.464 1393.5,130C 1401.01,121.662 1408.67,113.495 1416.5,105.5C 1420.96,101.537 1425.3,97.3702 1429.5,93C 1442.98,86.4979 1452.15,90.3312 1457,104.5C 1457.43,109.127 1456.43,113.46 1454,117.5C 1449.6,121.729 1445.44,126.062 1441.5,130.5 Z"/></g>
<g><path style="opacity:0.972" fill="#61cb6b" d="M 544.5,90.5 C 553.325,90.8273 559.159,95.1606 562,103.5C 562.333,113.5 562.667,123.5 563,133.5C 567.522,139.06 571.522,138.727 575,132.5C 575.333,122.833 575.667,113.167 576,103.5C 580.209,93.1455 587.709,89.3122 598.5,92C 603.641,93.8074 607.141,97.3074 609,102.5C 609.943,128.202 609.61,153.869 608,179.5C 600.063,200.233 584.897,209.399 562.5,207C 553.988,206.724 546.821,203.557 541,197.5C 537.861,189.259 539.361,182.092 545.5,176C 548.205,174.128 551.205,173.295 554.5,173.5C 560.736,175.173 567.069,175.673 573.5,175C 574.91,174.632 575.91,173.799 576.5,172.5C 554.435,173.73 538.935,164.397 530,144.5C 528.403,130.222 528.07,115.889 529,101.5C 532.426,95.218 537.592,91.5514 544.5,90.5 Z"/></g>
<g><path style="opacity:0.97" fill="#39c5ba" d="M 846.5,90.5 C 854.61,93.0396 862.777,93.0396 871,90.5C 885.489,92.1234 891.156,100.123 888,114.5C 883.954,122.28 877.454,126.114 868.5,126C 867.667,126.833 866.833,127.667 866,128.5C 864.735,139.428 864.068,150.428 864,161.5C 858.382,172.364 849.882,175.531 838.5,171C 835.238,168.408 832.738,165.241 831,161.5C 830.333,141.833 830.333,122.167 831,102.5C 834.06,95.5888 839.226,91.5888 846.5,90.5 Z"/></g>
<g><path style="opacity:0.97" fill="#39c5ba" d="M 909.5,90.5 C 917.815,90.9057 923.648,94.9057 927,102.5C 927.333,112.5 927.667,122.5 928,132.5C 931.579,138.753 935.579,139.086 940,133.5C 940.333,123.833 940.667,114.167 941,104.5C 945.048,93.0606 952.881,88.894 964.5,92C 969,93.8333 972.167,97 974,101.5C 975.042,107.613 975.542,113.779 975.5,120C 974.881,138.497 974.381,156.997 974,175.5C 969.821,194.013 958.321,204.513 939.5,207C 929.36,208.032 919.694,206.366 910.5,202C 902.561,193.364 902.561,184.697 910.5,176C 913.205,174.128 916.205,173.295 919.5,173.5C 926.088,175.114 932.755,175.614 939.5,175C 940.5,174 941.5,173 942.5,172C 917.689,173.827 901.522,162.994 894,139.5C 893.333,127.167 893.333,114.833 894,102.5C 897.083,95.5591 902.25,91.5591 909.5,90.5 Z"/></g>
<g><path style="opacity:0.969" fill="#39c5ba" d="M 1250.5,90.5 C 1259.21,89.9078 1267.71,90.9078 1276,93.5C 1284.64,90.7823 1293.48,89.949 1302.5,91C 1315.78,94.6104 1323.94,103.11 1327,116.5C 1327.67,131.5 1327.67,146.5 1327,161.5C 1322.81,170.177 1315.98,173.343 1306.5,171C 1302.03,169.192 1298.86,166.026 1297,161.5C 1296.67,148.5 1296.33,135.5 1296,122.5C 1294.99,121.663 1293.82,121.33 1292.5,121.5C 1292.93,135.226 1292.43,148.893 1291,162.5C 1288.09,168.571 1283.26,171.571 1276.5,171.5C 1268,171.838 1262.84,167.838 1261,159.5C 1260.5,146.838 1260.33,134.171 1260.5,121.5C 1259.18,121.33 1258.01,121.663 1257,122.5C 1256.67,135.167 1256.33,147.833 1256,160.5C 1252.34,169.916 1245.5,173.416 1235.5,171C 1231,169.167 1227.83,166 1226,161.5C 1225.33,146.5 1225.33,131.5 1226,116.5C 1229.24,103.095 1237.41,94.4281 1250.5,90.5 Z"/></g>
<g><path style="opacity:0.663" fill="#32beb4" d="M 1339.5,89.5 C 1341.97,89.0882 1343.31,90.0882 1343.5,92.5C 1341.77,91.9744 1340.44,90.9744 1339.5,89.5 Z"/></g>
<g><path style="opacity:0.969" fill="#44b9ad" d="M 1404.5,94.5 C 1407.17,96.5 1409.5,98.8333 1411.5,101.5C 1402.84,108.827 1394.51,116.493 1386.5,124.5C 1384.17,122.833 1382.17,120.833 1380.5,118.5C 1387.5,109.5 1395.5,101.5 1404.5,94.5 Z"/></g>
<g><path style="opacity:0.969" fill="#62cc6a" d="M 180.5,96.5 C 189.486,95.9062 195.986,99.5729 200,107.5C 200.667,125.167 200.667,142.833 200,160.5C 197.137,168.021 191.637,171.688 183.5,171.5C 175.06,171.563 169.56,167.563 167,159.5C 166.333,142.833 166.333,126.167 167,109.5C 169.451,102.88 173.951,98.5462 180.5,96.5 Z"/></g>
<g><path style="opacity:0.969" fill="#39c5ba" d="M 802.5,96.5 C 811.486,95.9062 817.986,99.5729 822,107.5C 822.667,125.167 822.667,142.833 822,160.5C 819.137,168.021 813.637,171.688 805.5,171.5C 797.06,171.563 791.56,167.563 789,159.5C 788.333,142.833 788.333,126.167 789,109.5C 791.451,102.88 795.951,98.5462 802.5,96.5 Z"/></g>
<g><path style="opacity:0.971" fill="#39c5ba" d="M 1348.5,96.5 C 1357.98,95.8334 1364.48,99.8334 1368,108.5C 1368.67,125.833 1368.67,143.167 1368,160.5C 1361.97,171.754 1353.14,174.587 1341.5,169C 1338.57,166.736 1336.4,163.902 1335,160.5C 1334.33,143.167 1334.33,125.833 1335,108.5C 1337.87,102.457 1342.37,98.457 1348.5,96.5 Z"/></g>
<g><path style="opacity:0.966" fill="#43b9ad" d="M 1132.5,121.5 C 1132.35,123.97 1131.35,125.97 1129.5,127.5C 1122.99,122.498 1116.32,117.665 1109.5,113C 1105.42,110.295 1101.09,108.128 1096.5,106.5C 1097.24,103.05 1095.91,101.384 1092.5,101.5C 1093.31,100.007 1094.65,99.3402 1096.5,99.5C 1099.03,99.7628 1101.36,100.596 1103.5,102C 1113.23,108.523 1122.9,115.023 1132.5,121.5 Z"/></g>
<g><path style="opacity:0.971" fill="#23afa3" d="M 1411.5,101.5 C 1413.17,102.833 1414.83,104.167 1416.5,105.5C 1408.67,113.495 1401.01,121.662 1393.5,130C 1392.91,130.464 1392.24,130.631 1391.5,130.5C 1389.83,128.5 1388.17,126.5 1386.5,124.5C 1394.51,116.493 1402.84,108.827 1411.5,101.5 Z"/></g>
<g><path style="opacity:0.969" fill="#23afa3" d="M 1096.5,106.5 C 1101.09,108.128 1105.42,110.295 1109.5,113C 1116.32,117.665 1122.99,122.498 1129.5,127.5C 1128.85,129.156 1128.19,130.823 1127.5,132.5C 1128.43,134.765 1129.76,136.765 1131.5,138.5C 1124.11,133.961 1117.11,128.795 1110.5,123C 1102.36,118.282 1094.69,113.116 1087.5,107.5C 1090.61,107.736 1093.61,107.403 1096.5,106.5 Z"/></g>
<g><path style="opacity:0.97" fill="#38c4ba" d="M 1087.5,107.5 C 1094.69,113.116 1102.36,118.282 1110.5,123C 1117.11,128.795 1124.11,133.961 1131.5,138.5C 1136.12,143.949 1137.62,150.283 1136,157.5C 1128.52,171.994 1117.68,175.161 1103.5,167C 1094.3,157.47 1084.8,148.303 1075,139.5C 1069.74,129.737 1070.58,120.57 1077.5,112C 1080.47,109.682 1083.8,108.182 1087.5,107.5 Z"/></g>
<g><path style="opacity:0.968" fill="#23afa3" d="M 1441.5,130.5 C 1442.42,132.754 1443.75,134.754 1445.5,136.5C 1437.14,144.194 1429.14,152.194 1421.5,160.5C 1419.83,159.167 1418.17,157.833 1416.5,156.5C 1424.13,147.2 1432.47,138.533 1441.5,130.5 Z"/></g>
<g><path style="opacity:0.969" fill="#44b9ad" d="M 1445.5,136.5 C 1448.17,138.5 1450.5,140.833 1452.5,143.5C 1444.17,151.167 1436.17,159.167 1428.5,167.5C 1425.83,165.5 1423.5,163.167 1421.5,160.5C 1429.14,152.194 1437.14,144.194 1445.5,136.5 Z"/></g>
<g><path style="opacity:0.938" fill="#39c4ba" d="M 1452.5,143.5 C 1459.43,152.433 1458.76,160.933 1450.5,169C 1442.67,173.993 1435.33,173.493 1428.5,167.5C 1436.17,159.167 1444.17,151.167 1452.5,143.5 Z"/></g>
</svg>
